<svg xmlns="http://www.w3.org/2000/svg" width="349px" height="451px" viewBox="73 44 201.61664559999997 260.61664559999997" version="1.1" id="svg5" xml:space="preserve" data-square-offset-x="76.43648279999998" data-square-offset-y="51.55598279999998"><defs id="defs2" style="fill: rgb(12, 137, 233);"/><g id="layer1" style="fill: rgb(12, 137, 233);"><path style="fill: rgb(12, 137, 233);" d="m 167.04208279999983 296.90828280000045 c -20.367,-1.767 -38.078,-8.628 -54.151,-20.98 -3.946,-3.033 -12.141,-11.1324 -15.398,-15.219 -12.004,-15.0635 -18.848,-31.9424 -20.682,-51.0106 -0.446,-4.6368 -0.503,-12.7032 -0.121,-17.1196 1.612,-18.615 9.243,-36.9903 21.637,-52.0985 2.441,-2.9758 8.307,-9.0116 11.168,-11.4922 1.329,-1.1516 1.66,-1.5771 1.456,-1.8695 -1.065,-1.5222 -5.544,-7.7435 -5.711,-7.9312 -0.114,-0.1288 -0.959,0.3002 -1.879,0.9545 -2.303,1.638 -3.252,2.0925 -3.879,1.8571 -0.47,-0.1769 -4.971,-6.1243 -6.178,-8.1646 -0.546,-0.9234 -0.456,-1.3741 0.545,-2.7047 0.917,-1.2204 5.191,-4.7458 8.37,-6.9047 4.689,-3.184 11.706,-6.5924 12.834,-6.2342 0.679,0.2152 1.63,1.4624 4.217,5.5262 1.664,2.6143 2.134,3.5552 2.015,4.032 -0.1,0.3863 -0.957,1.1825 -2.269,2.102 -1.162,0.8141 -2.112,1.5764 -2.112,1.694 0,0.2404 4.865,7.3497 5.409,7.9042 0.294,0.2992 0.451,0.2908 0.976,-0.052 1.145,-0.7473 5.088,-2.8309 7.902,-4.1753 8.843,-4.2242 19.604,-7.4517 28.972,-8.6891 3.862,-0.5101 3.572,-0.3567 3.572,-1.8902 0,-1.1483 -0.08,-1.364 -0.565,-1.4903 -0.31,-0.081 -1.623,-0.6629 -2.917,-1.2925 -10.14,-4.9354 -16.337,-15.7343 -15.059,-26.2436 0.701,-5.7667 3.112,-10.7652 7.277,-15.0862 5.645,-5.8567 12.689,-8.7743 21.186,-8.7743 5.328,0 9.223,0.9388 13.951,3.362 5.543,2.841 10.44,8.0817 12.625,13.5122 1.556,3.8658 1.735,4.8803 1.719,9.7165 -0.01,4.1082 -0.08,4.6992 -0.729,6.8214 -2.356,7.6755 -7.621,13.6341 -15.175,17.174 -1.657,0.7767 -2.205,1.1554 -2.092,1.4482 0.08,0.2181 0.152,0.786 0.152,1.2621 v 0.8656 l 3.506,0.46 c 12.92,1.6952 24.848,5.6803 36.273,12.1193 1.961,1.1053 2.396,1.2604 2.68,0.9571 0.638,-0.68 5.242,-7.475 5.27,-7.7786 0.01,-0.1666 -0.924,-0.9522 -2.088,-1.7458 -2.963,-2.0192 -2.968,-1.9593 0.589,-7.2417 3.633,-5.3955 3.217,-5.2863 9.068,-2.3812 5.034,2.4997 9.305,5.3724 13.298,8.9446 2.338,2.0915 3.247,3.323 3.038,4.117 -0.213,0.8099 -6.052,8.7417 -6.551,8.9003 -0.595,0.1886 -1.662,-0.3266 -3.911,-1.8876 -0.916,-0.6361 -1.75,-1.1513 -1.852,-1.1448 -0.102,0.01 -0.781,0.9243 -1.509,2.0396 -0.727,1.1152 -2.007,2.9561 -2.844,4.0907 -0.837,1.1346 -1.521,2.1545 -1.521,2.2664 0,0.1119 0.906,0.9744 2.013,1.9167 3.041,2.5892 9.202,9.0122 11.879,12.3848 12.013,15.1373 18.692,31.5347 20.511,50.3586 0.43,4.4484 0.205,16.4219 -0.389,20.7262 -1.532,11.0942 -4.656,21.1029 -9.662,30.9563 -10.717,21.0922 -27.824,36.8194 -50.163,46.1144 -8.315,3.46 -17.292,5.714 -27.028,6.785 -3.424,0.377 -14.354,0.521 -17.673,0.233 z m 19.253,-13.152 c 23.761,-3.44 44.185,-15.5157 58.301,-34.4693 8.315,-11.1643 13.902,-25.4199 15.588,-39.773 0.831,-7.0692 0.435,-17.3341 -0.948,-24.6079 -3.78,-19.8724 -15.564,-38.3288 -32.477,-50.865 -22.631,-16.7744 -53.276,-21.6588 -80.09,-12.7652 -8.472,2.8101 -15.915,6.5144 -22.665,11.2808 -20.49,14.469 -33.241,36.2301 -35.543,60.6602 -1.686,17.8951 2.813,36.2305 12.69,51.7094 9.369,14.6846 23.753,26.451 40.654,33.256 7.569,3.047 16.204,5.114 25.237,6.04 2.602,0.267 16.52,-0.07 19.253,-0.466 z m -18.724,-4.7 c -20.456,-1.63 -41.282,-11.9337 -54.435,-26.9323 -10.691,-12.1907 -16.435,-24.4465 -19.165,-40.8918 -0.696,-4.1949 -0.698,-17.217 0,-21.4313 1.884,-11.423 5.244,-20.5667 10.987,-29.8979 12.14,-19.7271 32.916,-33.3121 56.407,-36.8828 21.909,-3.3304 43.93,1.9123 61.716,14.6932 8.239,5.9203 16.053,14.3568 21.602,23.3224 2.976,4.8077 6.23,12.2258 7.924,18.0646 2.433,8.3833 3.479,19.0238 2.705,27.5016 -1.361,14.9076 -6.608,28.7114 -15.237,40.0843 -17.127,22.5749 -44.129,34.631 -72.501,32.37 z m 5.954,-3.001 c 0,-0.876 0.05,-0.926 0.896,-0.926 0.822,0 0.912,0.08 1.078,0.966 l 0.181,0.965 3.354,-0.172 c 2.929,-0.15 10.285,-1.061 10.528,-1.304 0.05,-0.05 -0.01,-0.704 -0.13,-1.458 -0.119,-0.754 -0.155,-1.432 -0.08,-1.507 0.417,-0.418 0.832,0.02 1.131,1.187 0.27,1.051 0.452,1.322 0.885,1.321 0.793,0 6.853,-1.577 7.132,-1.852 0.139,-0.138 0.1,-0.722 -0.1,-1.418 -0.317,-1.135 -0.231,-1.755 0.244,-1.755 0.122,0 0.436,0.595 0.698,1.323 0.262,0.727 0.577,1.323 0.7,1.323 0.542,0 5.642,-2.05 8.632,-3.4702 3.485,-1.6546 3.308,-1.459 2.796,-3.0944 -0.107,-0.3401 0.05,-0.5698 0.541,-0.7937 0.91,-0.4146 0.856,-0.4345 1.337,0.4949 l 0.419,0.81 1.241,-0.7208 c 3.314,-1.9237 9.293,-6.1323 9.305,-6.5497 0,-0.1246 -0.351,-0.6775 -0.787,-1.2287 -0.437,-0.5512 -0.794,-1.1339 -0.794,-1.2948 0,-0.5818 0.756,-0.2733 1.552,0.6334 0.447,0.5093 0.978,0.926 1.179,0.926 0.201,0 1.64,-1.2081 3.199,-2.6848 l 2.833,-2.6848 -0.942,-0.9644 c -1.598,-1.636 -1.108,-2.199 0.68,-0.7826 0.894,0.7077 1.096,0.7718 1.466,0.4644 0.865,-0.7174 5.82,-6.826 7.363,-9.0762 l 1.586,-2.3144 -0.779,-0.6215 c -0.725,-0.5785 -0.754,-0.6682 -0.418,-1.2973 0.422,-0.787 0.565,-0.812 1.597,-0.2782 0.766,0.3961 0.772,0.3933 1.429,-0.729 0.902,-1.538 3.861,-7.7496 3.861,-8.1034 0,-0.1572 -0.476,-0.5288 -1.058,-0.8257 -0.582,-0.297 -1.058,-0.7161 -1.058,-0.9314 0,-0.4788 -0.05,-0.479 1.323,0.01 0.618,0.2183 1.173,0.3969 1.233,0.3969 0.192,0 1.106,-2.3117 1.773,-4.4814 l 0.648,-2.1101 -1.448,-0.421 c -1.611,-0.4684 -1.835,-1.1267 -0.326,-0.9556 2.104,0.2385 2.164,0.2196 2.429,-0.7631 0.137,-0.5094 0.459,-1.9381 0.715,-3.175 l 0.465,-2.249 -1.336,-0.4032 c -0.734,-0.2217 -1.39,-0.5678 -1.457,-0.769 -0.1,-0.296 0.18,-0.3343 1.46,-0.2005 l 1.582,0.1653 0.326,-2.5713 c 0.18,-1.4142 0.394,-4.0298 0.477,-5.8124 l 0.15,-3.2412 h -0.964 c -0.926,0 -0.965,-0.037 -0.965,-0.926 0,-0.882 0.04,-0.9261 0.926,-0.9261 h 0.926 v -1.9027 c 0,-1.0465 -0.135,-3.2322 -0.299,-4.857 l -0.3,-2.9544 -1.459,0.028 c -1.952,0.038 -2.078,-0.4672 -0.234,-0.9324 l 1.435,-0.3621 -0.628,-3.0427 c -0.837,-4.0494 -0.647,-3.7537 -2.12,-3.3105 -0.686,0.2065 -1.346,0.3145 -1.467,0.2399 -0.536,-0.331 -0.12,-0.7964 1.039,-1.1627 1.095,-0.3463 1.246,-0.4812 1.184,-1.0583 -0.137,-1.2738 -1.745,-5.8209 -2.059,-5.8209 -0.174,0 -0.799,0.17 -1.388,0.3778 -0.939,0.3313 -1.089,0.3293 -1.221,-0.016 -0.107,-0.2771 0.207,-0.5522 1.06,-0.9295 1.102,-0.4876 1.196,-0.5994 1.036,-1.2409 -0.266,-1.0673 -4.025,-8.6445 -4.472,-9.0158 -0.287,-0.2381 -0.533,-0.2493 -0.92,-0.042 -0.806,0.4314 -1.308,0.3415 -1.649,-0.2955 -0.27,-0.5047 -0.214,-0.6546 0.438,-1.1743 0.642,-0.5117 0.708,-0.6819 0.468,-1.2074 -0.601,-1.3186 -7.751,-10.4351 -8.59,-10.954 -0.298,-0.1841 -1.771,1.0983 -2.04,1.7767 -0.216,0.542 -25.015,23.6099 -33.671,31.3198 -0.817,0.7276 -3.437,3.1095 -5.821,5.293 -2.384,2.1836 -5.304,4.8378 -6.489,5.8983 l -2.153,1.9281 0.386,1.2455 c 0.603,1.9416 0.351,5.1332 -0.541,6.8774 -1.407,2.7472 -3.503,4.392 -6.481,5.0848 -3.879,0.9026 -8.13,-1.1228 -10.095,-4.8096 -0.75,-1.4072 -0.91,-2.0162 -1.005,-3.8235 -0.07,-1.3074 0.01,-2.5389 0.215,-3.1429 l 0.328,-0.9932 -1.288,-1.0904 c -5.128,-4.3448 -25.369,-22.9755 -25.766,-23.7164 -0.267,-0.5002 0.25,-1.3188 0.834,-1.3188 0.523,0 23.478,16.2163 30.011,21.2008 0.157,0.1199 0.922,-0.028 1.72,-0.3328 1.165,-0.4452 1.861,-0.5278 3.685,-0.4379 1.377,0.068 2.57,0.2794 3.076,0.5454 0.818,0.4305 0.838,0.4254 2.126,-0.547 1.848,-1.3947 14.211,-11.3564 23.241,-18.727 10.371,-8.4647 22.843,-18.4727 25.268,-20.2755 1.091,-0.8114 2.315,-1.8258 2.719,-2.2542 l 0.734,-0.7788 -2.322,-2.2294 c -2.461,-2.3633 -4.802,-4.3528 -4.919,-4.1807 -0.86,1.2703 -1.61,2.0879 -1.914,2.0879 -0.603,0 -0.452,-0.6343 0.406,-1.7149 0.435,-0.5467 0.726,-1.0972 0.648,-1.2234 -0.2,-0.3247 -4.6,-3.3681 -7.188,-4.972 -2.053,-1.2726 -2.981,-1.6263 -2.981,-1.1361 0,0.1177 -0.164,0.4385 -0.365,0.7129 -0.348,0.4762 -0.396,0.4781 -1.061,0.043 -0.671,-0.44 -0.681,-0.4842 -0.29,-1.2419 0.4,-0.773 0.393,-0.7942 -0.46,-1.314 -1.077,-0.6567 -4.762,-2.2776 -8.351,-3.6733 l -2.723,-1.0586 -0.657,1.4861 c -0.476,1.0775 -0.737,1.4063 -0.947,1.1961 -0.21,-0.2102 -0.2,-0.6635 0.04,-1.6486 0.179,-0.7472 0.283,-1.3942 0.23,-1.4377 -0.115,-0.094 -4.586,-1.3325 -6.407,-1.7741 -1.491,-0.3616 -1.616,-0.2608 -1.884,1.5287 -0.138,0.9239 -0.277,1.1469 -0.714,1.1469 -0.557,0 -0.564,-0.3937 -0.05,-2.5548 0.1,-0.4004 0,-0.6123 -0.349,-0.7112 -2.081,-0.6036 -13.179,-1.7079 -14,-1.3931 -0.211,0.081 -0.376,0.497 -0.376,0.9466 0,0.7402 -0.07,0.802 -0.926,0.802 -0.882,0 -0.926,-0.044 -0.926,-0.926 0,-0.8743 -0.05,-0.926 -0.888,-0.926 -3.139,0 -12.903,1.1169 -13.616,1.5577 -0.206,0.1274 -0.231,0.61 -0.08,1.5622 0.194,1.2242 0.166,1.378 -0.251,1.378 -0.316,0 -0.524,-0.2786 -0.641,-0.8599 -0.314,-1.5569 -0.429,-1.786 -0.9,-1.786 -0.68,0 -7.257,1.8324 -7.52,2.095 -0.123,0.1226 -0.03,0.7918 0.206,1.4871 0.273,0.8028 0.337,1.3563 0.177,1.5167 -0.387,0.3869 -0.7,0.061 -1.098,-1.1449 -0.199,-0.6048 -0.527,-1.163 -0.729,-1.2403 -0.467,-0.1791 -4.874,1.4741 -8.719,3.2703 l -2.97,1.3879 0.378,0.9045 c 0.284,0.6819 0.303,0.9794 0.07,1.2089 -0.531,0.531 -1.416,0.3492 -1.738,-0.357 -0.166,-0.3638 -0.393,-0.6608 -0.505,-0.6599 -0.716,0.01 -10.618,6.7796 -10.633,7.2744 0,0.1456 0.347,0.7334 0.78,1.3063 1.094,1.4457 0.49,1.8077 -0.844,0.5056 -0.533,-0.5203 -1.097,-0.9027 -1.254,-0.8498 -0.504,0.1701 -5.848,5.2817 -5.848,5.5937 0,0.1656 0.437,0.7486 0.971,1.2955 0.805,0.8243 0.896,1.0229 0.536,1.1611 -0.273,0.1048 -0.8,-0.1355 -1.422,-0.6476 l -0.988,-0.8143 -0.632,0.5904 c -1.282,1.1986 -4.287,4.9063 -6.26,7.7263 l -2.031,2.9025 0.863,0.7041 c 0.851,0.6944 0.856,0.7138 0.409,1.397 -0.537,0.8197 -0.533,0.8189 -1.413,0.2424 -0.673,-0.441 -0.7,-0.4341 -1.31,0.3305 -0.709,0.8902 -4.205,7.8495 -4.467,8.8946 -0.158,0.6294 -0.07,0.7313 1.038,1.1531 1.442,0.5508 1.715,1.3448 0.352,1.025 -2.034,-0.4773 -2.068,-0.4524 -2.991,2.1441 -0.466,1.3097 -0.927,2.7547 -1.026,3.2112 -0.176,0.8172 -0.158,0.8351 1.158,1.1509 0.869,0.2085 1.338,0.4597 1.338,0.7173 0,0.3276 -0.269,0.3652 -1.549,0.2168 l -1.548,-0.1798 -0.588,2.8658 c -0.324,1.5761 -0.609,3.0443 -0.635,3.2626 -0.03,0.26 0.388,0.527 1.211,0.7742 1.748,0.5248 1.709,1.1603 -0.06,1.0372 -0.831,-0.058 -1.363,0.021 -1.437,0.2137 -0.144,0.3754 -0.62,4.8744 -0.773,7.3014 l -0.113,1.786 h 0.867 c 0.795,0 0.876,0.077 0.976,0.9341 0.132,1.1356 0.09,1.1825 -1.038,1.1825 h -0.898 l 0.149,1.8521 c 0.08,1.0186 0.212,2.7153 0.289,3.7703 0.08,1.055 0.271,2.8477 0.43,3.9837 l 0.288,2.0655 1.423,-0.1777 c 1.165,-0.1457 1.422,-0.1063 1.422,0.2182 0,0.2477 -0.44,0.5067 -1.175,0.6918 -0.646,0.1627 -1.227,0.3852 -1.29,0.4944 -0.12,0.2067 0.582,3.8459 1.129,5.8518 l 0.315,1.1554 1.058,-0.1692 c 0.582,-0.093 1.191,-0.1962 1.355,-0.2293 0.163,-0.033 0.339,0.1313 0.391,0.3651 0.07,0.3087 -0.236,0.5176 -1.109,0.762 -0.662,0.1852 -1.203,0.4342 -1.203,0.5533 0,0.4004 1.379,4.6023 1.744,5.3127 0.323,0.6297 0.472,0.6883 1.425,0.5605 1.266,-0.1698 1.421,0.2441 0.271,0.7207 -0.487,0.2015 -0.794,0.5226 -0.794,0.8294 0,0.2754 0.925,2.3148 2.056,4.532 2.159,4.234 2.165,4.2398 3.691,3.761 0.471,-0.1478 0.652,-0.044 0.91,0.5223 0.293,0.6435 0.255,0.7604 -0.429,1.3054 l -0.751,0.5987 1.366,2.024 c 1.487,2.2027 4.155,5.5835 6.273,7.9476 l 1.341,1.4978 1.082,-0.9258 c 1.837,-1.5721 2.348,-1.0019 0.667,0.7426 l -0.993,1.0292 2.894,2.7522 c 1.592,1.5138 2.986,2.7523 3.099,2.7523 0.113,0 0.679,-0.506 1.258,-1.1245 0.75,-0.8021 1.133,-1.0432 1.338,-0.8411 0.205,0.2028 0.07,0.579 -0.462,1.3229 -0.411,0.5718 -0.832,1.1796 -0.935,1.3507 -0.119,0.1975 0.805,1.033 2.528,2.286 2.953,2.1474 7.714,5.2081 8.102,5.2081 0.133,0 0.437,-0.2977 0.675,-0.6615 0.495,-0.756 0.861,-0.8118 1.611,-0.2456 0.503,0.3802 0.507,0.4352 0.09,1.1672 -0.546,0.9502 -0.531,0.9644 2.571,2.3924 4.346,2.0015 9.422,3.9625 10.256,3.9625 0.189,0 0.558,-0.596 0.819,-1.323 0.431,-1.199 0.861,-1.59 1.283,-1.169 0.08,0.08 -0.07,0.793 -0.334,1.574 l -0.488,1.418 0.841,0.275 c 1.298,0.424 6.191,1.606 6.65,1.606 0.225,0 0.409,-0.208 0.41,-0.463 0,-1.038 0.565,-2.448 0.975,-2.448 0.357,0 0.397,0.241 0.259,1.562 -0.129,1.235 -0.08,1.593 0.223,1.71 1.066,0.41 7.531,1.109 10.911,1.18 l 2.183,0.05 z m -7.377,-2.753 c -0.472,-0.299 -0.147,-0.819 0.513,-0.819 0.497,0 0.514,-0.256 0.514,-7.8951 v -7.895 l -0.702,-0.3198 c -1.235,-0.5625 -0.325,-0.848 2.445,-0.7675 2.121,0.062 2.622,0.1522 2.622,0.4732 0,0.2182 -0.268,0.4349 -0.595,0.4814 l -0.595,0.084 v 7.9191 7.9187 h 0.667 c 0.439,0 0.755,-0.203 0.925,-0.595 0.244,-0.562 4.493,-15.914 4.493,-16.2326 0,-0.082 0.145,-0.1009 0.323,-0.042 0.178,0.059 1.523,3.7899 2.989,8.2903 2.205,6.7703 2.766,8.2273 3.248,8.4433 1.068,0.478 0.631,0.849 -1.202,1.022 -2.738,0.259 -3.506,0.218 -3.506,-0.184 0,-0.196 0.231,-0.464 0.512,-0.595 0.491,-0.229 0.45,-0.44 -0.937,-4.8694 -1.789,-5.7163 -1.676,-5.3955 -1.845,-5.2266 -0.169,0.1695 -2.743,9.452 -2.751,9.923 0,0.182 0.232,0.331 0.523,0.331 0.294,0 0.529,0.176 0.529,0.397 0,0.335 -0.608,0.396 -3.902,0.392 -2.147,0 -4.067,-0.108 -4.268,-0.235 z m -21.919,-5.7931 c -2.022,-1.0354 -2.336,-1.4186 -1.354,-1.6504 0.438,-0.1035 0.696,-0.4631 0.947,-1.3229 0.49,-1.6727 1.945,-7.9923 1.86,-8.0772 -0.04,-0.039 -1.517,1.5664 -3.284,3.5672 -2.849,3.2264 -3.196,3.7232 -3.069,4.3921 l 0.145,0.7542 -1.297,-0.7406 c -7.923,-4.5243 -10.856,-6.605 -8.619,-6.1137 0.732,0.1608 0.832,0.027 4.78,-6.3802 3.695,-5.9976 4.004,-6.5954 3.705,-7.1543 -0.464,-0.8667 -0.135,-1.0243 0.876,-0.4199 3.381,2.0212 6.749,4.139 7.054,4.4345 0.509,0.4936 0.141,1.0065 -0.483,0.6727 -0.617,-0.3305 -0.572,-0.3873 -3.299,4.164 -1.224,2.0426 -2.955,4.8716 -3.846,6.2865 -0.892,1.415 -1.586,2.6015 -1.543,2.6367 0.04,0.035 0.322,0.1905 0.62,0.3451 0.489,0.2538 1.008,-0.2513 5.338,-5.1896 5.179,-5.9065 6.85,-7.6451 7.105,-7.39 0.217,0.2168 -0.93,6.0418 -2.384,12.1056 -1.003,4.1816 -1.119,4.9376 -0.794,5.1886 0.523,0.4048 0.476,0.8996 -0.08,0.8838 -0.254,-0.01 -1.323,-0.4537 -2.374,-0.9922 z m -9.422,-7.5294 c 0.933,-1.3971 6.707,-10.8131 7.117,-11.6073 0.349,-0.6746 0.334,-0.762 -0.193,-1.1314 -0.315,-0.2202 -0.661,-0.3454 -0.77,-0.2781 -0.108,0.067 -1.239,1.8184 -2.512,3.8915 -1.273,2.0731 -3.063,4.9878 -3.977,6.477 -1.662,2.7061 -1.663,2.7078 -1.09,3.1088 0.759,0.5315 0.764,0.53 1.425,-0.4605 z m 70.904,6.8224 c -0.08,-0.199 0.102,-0.5216 0.396,-0.7169 0.531,-0.3528 0.529,-0.3807 -0.415,-4.3208 -1.774,-7.409 -3.084,-13.4261 -2.952,-13.5582 0.07,-0.072 0.762,0.3875 1.532,1.0222 2.102,1.7334 11.693,10.1134 11.888,10.3876 0.09,0.1313 0.473,0.1627 0.844,0.07 1.439,-0.3612 0.884,0.4062 -1.407,1.9471 -1.931,1.2983 -2.425,1.529 -2.554,1.193 -0.09,-0.2291 0.03,-0.622 0.254,-0.8732 0.383,-0.4232 0.109,-0.7244 -3.731,-4.1139 -2.279,-2.0115 -4.181,-3.5455 -4.227,-3.4089 -0.05,0.1366 0.492,2.4983 1.195,5.2483 1.244,4.8696 1.296,5.002 1.993,5.0835 1.165,0.1362 0.828,0.6737 -0.98,1.5655 -1.315,0.6484 -1.728,0.7553 -1.836,0.475 z m -91.294,-21.8411 -0.961,-1.0639 2.451,-2.3188 c 1.349,-1.2754 3.197,-3.0183 4.108,-3.8731 0.91,-0.8549 1.603,-1.6065 1.539,-1.6702 -0.204,-0.2042 -10.056,2.8993 -10.539,3.3199 -0.255,0.2227 -0.495,0.356 -0.532,0.2962 -0.561,-0.8963 -1.698,-3.1021 -3.673,-7.1201 -1.323,-2.6921 -2.574,-5.2243 -2.78,-5.6271 -0.332,-0.6503 -0.325,-0.751 0.06,-0.8985 0.238,-0.091 0.525,-0.017 0.637,0.1652 0.15,0.2414 2.169,-0.6742 7.448,-3.3761 6.28,-3.2143 7.232,-3.7809 7.161,-4.2614 -0.05,-0.3557 0.06,-0.5541 0.319,-0.5541 0.565,0 6.39,11.6031 6.014,11.9795 -0.19,0.1899 -0.387,0.1821 -0.637,-0.025 -0.282,-0.2343 -1.893,0.5042 -7.353,3.371 -4.121,2.1634 -7.027,3.845 -7.078,4.0948 -0.104,0.5172 0.26,0.5274 1.806,0.051 6.26,-1.9309 8.037,-2.4571 11.335,-3.3556 4.485,-1.2219 4.67,-1.2427 4.262,-0.4791 -0.353,0.6581 -12.108,12.4098 -12.415,12.4098 -0.115,0 -0.643,-0.4787 -1.171,-1.0638 z m 1.509,-13.9711 c 3.521,-1.8663 6.61,-3.4699 6.865,-3.5636 0.526,-0.1934 0.613,-0.989 0.159,-1.4436 -0.23,-0.2292 -0.963,0.042 -2.977,1.1001 -1.47,0.7724 -4.675,2.4445 -7.123,3.7159 -3.316,1.7223 -4.412,2.4118 -4.299,2.705 0.08,0.2164 0.151,0.5029 0.151,0.6365 0,0.5695 1.164,0.062 7.224,-3.1503 z m -1.958,-4.0333 c 3.725,-1.9018 6.921,-3.6023 7.102,-3.7789 0.263,-0.2561 0.253,-0.4315 -0.05,-0.8669 -0.375,-0.5348 -0.515,-0.4789 -6.974,2.7867 -7.777,3.9322 -7.76,3.9212 -7.445,4.7216 0.128,0.3274 0.315,0.5953 0.415,0.5953 0.1,0 3.229,-1.556 6.954,-3.4578 z m 120.756,15.993 c 0.05,-0.684 -0.346,-0.9609 -6.636,-4.6527 -5.816,-3.4139 -6.759,-3.887 -7.238,-3.6305 -1.325,0.7093 -0.892,-0.4027 2.172,-5.5758 1.758,-2.9684 3.372,-5.7379 3.588,-6.1545 0.424,-0.8211 1.054,-0.8426 0.971,-0.033 -0.04,0.378 0.639,0.8965 2.778,2.1248 1.556,0.8937 4.718,2.7141 7.026,4.0454 3.899,2.2489 4.221,2.387 4.546,1.947 0.273,-0.3695 0.42,-0.4036 0.672,-0.1552 0.353,0.3477 -1.043,2.9565 -4.995,9.3362 -2.051,3.3104 -2.989,4.2043 -2.884,2.7485 z m 2.307,-3.9535 c 0.142,-0.3733 0.258,-0.7189 0.258,-0.768 0,-0.1944 -13.134,-7.8137 -13.469,-7.8137 -0.114,0 -0.426,0.2418 -0.694,0.5374 -0.42,0.4642 -0.434,0.5847 -0.107,0.8848 0.209,0.1911 2.82,1.752 5.803,3.4688 2.984,1.7167 5.901,3.3975 6.483,3.735 1.34,0.7775 1.414,0.7756 1.726,-0.044 z m 2.537,-4.2244 c 0.241,-0.3683 0.393,-0.7145 0.337,-0.7692 -0.25,-0.2442 -13.527,-7.8215 -13.705,-7.8215 -0.304,0 -0.9,1.2401 -0.728,1.5178 0.08,0.135 1.973,1.2958 4.199,2.5796 2.225,1.2839 5.118,2.9652 6.428,3.7363 1.309,0.7711 2.527,1.4075 2.705,1.4144 0.179,0.01 0.523,-0.289 0.764,-0.6574 z m -140.391,-32.0063 c 0,-3.2589 0.06,-3.8364 0.402,-3.8364 0.54,0 5.154,-1.8958 5.154,-2.1173 0,-0.096 -0.979,-0.6145 -2.176,-1.1528 l -2.176,-0.9785 -0.414,0.5487 c -0.582,0.7721 -0.79,0.411 -0.79,-1.3713 0,-1.2358 0.08,-1.5434 0.421,-1.5434 0.232,0 0.479,0.2178 0.549,0.484 0.08,0.3112 1.252,1.0118 3.281,1.9623 l 3.154,1.4783 4.698,-1.8389 c 2.803,-1.0972 4.844,-2.0488 5.061,-2.3592 0.199,-0.2862 0.527,-0.5203 0.727,-0.5203 0.281,0 0.365,0.5148 0.365,2.249 0,2.2383 -0.226,2.7109 -0.95,1.9868 -0.173,-0.173 -1.324,0.164 -3.388,0.9922 l -3.127,1.2543 3.137,1.5009 c 2.071,0.9908 3.34,1.4532 3.733,1.3604 0.59,-0.1393 0.595,-0.1146 0.595,2.7986 0,2.5129 -0.06,2.9391 -0.422,2.9391 -0.232,0 -0.484,-0.2382 -0.56,-0.5292 -0.134,-0.5145 -0.361,-0.5292 -8.159,-0.5292 -7.789,0 -8.026,0.015 -8.189,0.5292 -0.09,0.291 -0.339,0.5292 -0.547,0.5292 -0.312,0 -0.379,-0.6829 -0.379,-3.8365 z m 16.933,-0.4025 c 0,-0.1487 -0.327,-0.4054 -0.728,-0.5705 -0.4,-0.1651 -2.171,-0.946 -3.936,-1.7354 l -3.209,-1.4352 -3.935,1.5727 c -5.944,2.3757 -5.845,2.4386 3.851,2.4386 5.24,0 7.957,-0.092 7.957,-0.2702 z m 115.276,4.0681 c -0.1,-0.1001 -0.182,-3.1982 -0.182,-6.8847 0,-5.5528 0.06,-6.7028 0.368,-6.7028 0.203,0 0.437,0.1786 0.521,0.3969 0.131,0.3409 1.305,0.3969 8.332,0.3969 7.957,0 8.183,-0.014 8.318,-0.5292 0.185,-0.7067 0.617,-0.6716 0.815,0.066 0.24,0.8951 0.199,13.1118 -0.05,13.2622 -0.292,0.1805 -0.72,-0.1413 -0.924,-0.6945 -0.157,-0.4271 -0.796,-0.463 -8.23,-0.463 h -8.06 l -0.08,0.5745 c -0.09,0.5968 -0.513,0.8931 -0.828,0.5775 z m 17.28,-4.7239 v -0.6615 h -7.937 c -4.366,0 -8.027,0 -8.136,-0.01 -0.109,0 -0.236,0.2931 -0.282,0.6615 l -0.08,0.6696 h 8.22 8.219 z m -0.05,-4.2995 -0.08,-0.7276 -8.136,-0.07 -8.136,-0.07 v 0.6211 c 0,0.3417 0.08,0.7006 0.176,0.7976 0.1,0.097 3.796,0.1764 8.22,0.1764 h 8.043 z m -126.525,-20.6551 c -0.106,-0.1722 -0.125,-0.3131 -0.04,-0.3131 0.444,0 -2.936,-5.9728 -4.071,-7.1934 -0.574,-0.6173 -9.827,-1.2889 -10.653,-0.7732 -1.179,0.7365 -0.896,-0.1525 1.023,-3.2121 0.642,-1.0228 1.495,-1.3591 1.355,-0.534 -0.06,0.3825 0.229,0.4932 1.775,0.6703 1.018,0.1166 2.418,0.1784 3.109,0.1371 l 1.257,-0.075 -1.345,-2.249 c -1.719,-2.8749 -1.937,-3.1064 -2.49,-2.6475 -0.264,0.219 -0.515,0.2564 -0.671,0.1002 -0.32,-0.3198 1.509,-3.0821 1.944,-2.9358 0.172,0.058 0.277,0.4043 0.233,0.7698 -0.06,0.454 0.548,1.6925 1.905,3.9104 1.091,1.7852 2.034,3.2959 2.096,3.357 0.218,0.2182 9.586,0.8854 10.3,0.7336 0.4,-0.085 0.727,-0.074 0.727,0.025 0,0.099 -0.506,1.0006 -1.124,2.0032 -1.053,1.7072 -1.786,2.3059 -1.786,1.4592 0,-0.2025 -0.268,-0.4324 -0.595,-0.5107 -1.105,-0.2644 -5.49,-0.514 -5.49,-0.3125 0,0.2878 2.683,4.6231 2.972,4.8014 0.133,0.082 0.522,-0.1135 0.864,-0.435 1.019,-0.9575 1.274,-0.3904 0.46,1.0264 -1.24,2.161 -1.542,2.5389 -1.753,2.1971 z m 101.617,-4.3128 c -1.284,-2.1933 -2.266,-4.0555 -2.184,-4.1381 0.08,-0.083 0.433,-0.022 0.778,0.1357 0.677,0.3085 -0.02,0.6593 10.453,-5.2265 3.545,-1.9913 3.995,-2.321 3.937,-2.8827 -0.132,-1.2664 0.52,-0.7888 1.669,1.2232 0.646,1.1307 1.736,3.0013 2.422,4.157 0.979,1.6493 1.182,2.18 0.943,2.468 -0.254,0.3054 -0.379,0.2679 -0.75,-0.2243 -0.313,-0.4142 -0.595,-0.5357 -0.943,-0.4062 -0.273,0.1017 -3.435,1.8136 -7.027,3.8043 -6.387,3.54 -6.527,3.6354 -6.383,4.3543 0.337,1.6867 -0.69,0.5356 -2.915,-3.2647 z m 6.832,-3.0833 c 1.601,-0.8846 4.101,-2.2637 5.557,-3.0647 2.032,-1.1189 2.625,-1.568 2.557,-1.9382 -0.05,-0.265 -0.172,-0.57 -0.275,-0.6778 -0.103,-0.1078 -1.671,0.6478 -3.484,1.6792 -1.813,1.0314 -4.904,2.7693 -6.868,3.8619 -1.965,1.0927 -3.588,2.0039 -3.607,2.025 -0.02,0.021 0.07,0.3173 0.199,0.6584 l 0.234,0.6202 1.388,-0.7779 c 0.764,-0.4278 2.699,-1.5016 4.299,-2.3861 z m -91.678,-12.993 c 0,-0.1277 0.193,-0.3924 0.429,-0.5884 0.371,-0.3073 0.405,-0.7742 0.253,-3.4058 -0.272,-4.6886 -0.239,-4.5979 -2.1,-5.9105 -5.573,-3.9319 -6.56,-4.5173 -7.071,-4.1977 -0.648,0.4046 -0.771,0.393 -0.771,-0.072 0,-0.3331 2.443,-2.0977 4.226,-3.0517 0.832,-0.4454 1.329,0.06 0.72,0.7331 -0.415,0.4589 -0.365,0.5392 0.946,1.5104 2.599,1.9258 3.068,2.2506 3.255,2.2506 0.19,0 -0.07,-4.1633 -0.324,-5.2095 -0.121,-0.4946 -0.237,-0.543 -0.795,-0.3308 -0.873,0.3318 -0.938,0.3186 -0.838,-0.1707 0.08,-0.4043 7.151,-4.3208 7.825,-4.3358 0.467,-0.01 0.413,0.7716 -0.07,0.9553 -0.219,0.084 -0.397,0.2501 -0.397,0.3696 0,0.1195 1.656,3.1131 3.68,6.6524 3.185,5.5683 3.773,6.4464 4.366,6.5189 1.355,0.1655 0.755,0.7528 -2.622,2.5696 -1.31,0.7045 -2.911,1.6163 -3.558,2.0262 -0.786,0.4977 -1.265,0.6572 -1.442,0.4803 -0.177,-0.177 -0.16,-0.3705 0.05,-0.5825 0.175,-0.1747 0.318,-0.41 0.318,-0.5229 0,-0.2222 -3.771,-3.1284 -4.059,-3.1284 -0.222,0 -0.226,2.4593 0,4.0641 0.147,1.0668 0.251,1.2276 0.794,1.2276 1.037,0 0.71,0.6198 -0.805,1.5257 -1.453,0.869 -2.009,1.0416 -2.009,0.6233 z m 9.702,-6.5362 c 0.181,-0.4706 0.128,-0.5747 -4.093,-7.9821 -1.679,-2.9468 -3.198,-5.3578 -3.375,-5.3578 -0.178,0 -0.579,0.2083 -0.891,0.463 -0.566,0.4615 -0.566,0.4749 -0.182,4.1247 0.212,2.0138 0.426,3.7019 0.475,3.7513 0.6,0.5996 7.316,5.4004 7.567,5.4084 0.186,0.01 0.411,-0.1774 0.499,-0.4075 z m 54.259,2.7114 c -2.283,-1.3327 -2.784,-1.9672 -1.44,-1.8222 0.63,0.068 0.932,-0.3446 3.777,-5.1594 1.7,-2.8783 3.454,-5.812 3.897,-6.5193 0.656,-1.0467 0.748,-1.3667 0.494,-1.7198 -1.167,-1.6183 -0.685,-1.5981 2.186,0.092 2.472,1.4547 2.963,2.0778 1.519,1.9289 -0.661,-0.068 -0.964,0.3538 -4.647,6.4801 -3.704,6.1616 -3.913,6.5818 -3.505,7.0323 0.447,0.4943 0.585,1.1211 0.235,1.0698 -0.109,-0.016 -1.242,-0.6379 -2.516,-1.3821 z m -38.674,-7.2886 c -0.105,-0.1696 0.119,-0.4307 0.53,-0.6177 0.545,-0.2487 1.07,-1.0837 2.256,-3.5932 l 1.545,-3.2692 -1.899,-4.2403 c -1.501,-3.354 -2.034,-4.292 -2.548,-4.4876 -1.11,-0.4221 -0.289,-0.7047 2.324,-0.7991 1.731,-0.062 2.522,0 2.594,0.2183 0.06,0.1695 -0.147,0.3875 -0.452,0.4844 -0.675,0.2141 -0.598,0.5319 0.801,3.3084 l 1,1.9843 1.082,-2.3414 c 1.174,-2.5398 1.295,-3.0825 0.685,-3.0825 -0.218,0 -0.397,-0.1786 -0.397,-0.3969 0,-0.3412 0.848,-0.3969 6.042,-0.3969 3.323,0 6.112,0.071 6.199,0.1582 0.296,0.2961 -0.125,0.9002 -0.627,0.9002 -0.48,0 -0.501,0.3209 -0.501,7.6729 0,7.4965 0.01,7.6729 0.529,7.6729 0.294,0 0.529,0.1764 0.529,0.3969 0,0.3422 -0.911,0.3968 -6.614,0.3968 -5.552,0 -6.615,-0.061 -6.615,-0.3774 0,-0.2076 0.163,-0.416 0.363,-0.4631 0.272,-0.064 0.1,-0.6991 -0.7,-2.5477 -0.584,-1.3542 -1.146,-2.3662 -1.248,-2.249 -0.103,0.1173 -0.641,1.1977 -1.197,2.4009 -0.979,2.1199 -0.994,2.1991 -0.503,2.5581 0.685,0.5011 0.507,0.6071 -1.378,0.8204 -1.085,0.1227 -1.678,0.086 -1.8,-0.1107 z m 11.226,-8.646 v -7.525 h -0.655 c -0.525,0 -0.768,0.2496 -1.226,1.2567 -0.313,0.6913 -1.024,2.2401 -1.578,3.4418 l -1.007,2.1851 0.892,1.9573 c 0.49,1.0766 1.278,2.8913 1.749,4.0327 0.848,2.0526 1.203,2.5604 1.614,2.3068 0.116,-0.072 0.211,-3.5167 0.211,-7.6554 z m 4.498,0.1479 v -7.6729 h -0.794 -0.794 v 7.6729 7.6729 h 0.794 0.794 z m -4.022,66.3032 c 1.238,-0.6441 1.957,-1.6321 2.098,-2.8816 0.277,-2.4597 -1.488,-4.3267 -3.874,-4.0974 -2.786,0.2677 -4.252,2.8297 -3.058,5.3448 0.78,1.6439 3.226,2.4709 4.834,1.6342 z m -13.285,-113.4282 c -1.787,-1.9881 -2.33,-3.671 -2.476,-7.6711 -0.157,-4.3152 0.211,-5.7094 2.034,-7.7043 2.489,-2.7235 5.71,-3.7503 11.795,-3.7605 4.087,-0.01 6.731,0.4672 8.919,1.5986 1.328,0.687 3.126,2.5163 3.861,3.9298 0.612,1.1762 0.706,1.7109 0.796,4.5327 0.148,4.6312 -0.69,7.4217 -2.851,9.4924 -0.781,0.7484 -0.803,0.8345 -0.803,3.2329 0,1.8036 0.09,2.4641 0.333,2.4641 0.503,0 3.419,-1.9733 4.95,-3.3496 2.837,-2.5504 5.215,-6.7883 5.985,-10.6641 1.481,-7.4541 -1.918,-15.3212 -8.561,-19.8158 -6.557,-4.4364 -15.463,-5.1285 -22.683,-1.7626 -5.266,2.4552 -9.125,6.6354 -11.119,12.0441 -0.603,1.6371 -0.752,2.5402 -0.851,5.1594 -0.147,3.9213 0.261,5.8856 1.948,9.3608 0.984,2.0284 1.598,2.8787 3.364,4.6563 1.981,1.9939 4.469,3.8516 5.842,4.361 0.532,0.1972 0.554,0.1135 0.628,-2.2901 l 0.08,-2.4947 z" id="path28"/></g></svg>